<svg xmlns="http://www.w3.org/2000/svg" width="174.297" height="207.058" viewBox="0 0 174.297 207.058"><defs><style>.a{fill:rgba(255,253,253,0);}.a,.b,.e{stroke:#fff;}.b,.d,.f,.h{fill:none;}.c{fill:#fff;}.d,.h{stroke:#111;}.e,.g{fill:#111;}.f{stroke:#000;}.h{stroke-width:0.5px;}</style></defs><g transform="translate(-0.154 0.051)"><path class="a" d="M153.856,111.686a2.3,2.3,0,1,0,1.9-2.571" transform="translate(-31.934 -22.628)"/><path class="b" d="M80.745,207.772a2.3,2.3,0,1,0-1.093,3" transform="translate(-15.789 -42.94)"/><rect class="a" width="4.749" height="4.749" rx="1" transform="translate(74.189 21.669)"/><rect class="b" width="4.749" height="4.749" rx="1" transform="translate(10.994 154.048)"/><path class="b" d="M55.132,40.237c4.433,1.9,46.009,18.6,64.116,27.309,3.365,2.177-.4,7.718-4.156,13.852s-12.071,22.955-14.842,26.121S39.3,83.773,36.926,80.607,49.591,37.862,55.132,40.237Z" transform="translate(-7.509 -8.256)"/><path class="c" d="M49.565,48.468C54,50.368,92.8,65.091,110.911,73.8c3.364,2.177,7.909,3.177,4.149,9.312s-12.071,22.955-14.842,26.121S39.269,85.485,36.894,82.318,44.024,46.093,49.565,48.468Z" transform="translate(-7.477 -9.968)"/><path class="d" d="M52.492,48.264c19.2,7.652,60.561,25.912,65.31,29.474" transform="translate(-10.806 -9.951)"/><circle class="e" cx="2.028" cy="2.028" r="2.028" transform="translate(47.128 34.801)"/><circle class="e" cx="2.028" cy="2.028" r="2.028" transform="translate(54.202 37.868)"/><circle class="e" cx="2.028" cy="2.028" r="2.028" transform="translate(61.079 40.936)"/><path class="f" d="M81.03,74.79c-5.607-1.451-17.1-3.918-18.206-2.177s3.76,8.377,6.332,11.478" transform="translate(-12.926 -14.901)"/><path class="f" d="M68.492,89.933c6.728-3.232,20.462-9.815,21.57-10.29" transform="translate(-14.141 -16.491)"/><path class="f" d="M83.117,92.138c4.288,1.385,13.179,3.879,14.446,2.77s-1.451-7.058-2.968-9.895" transform="translate(-17.19 -17.611)"/><path class="a" d="M116.5,61.013c.087-1,.744-3.16,2.676-3.786a4.258,4.258,0,0,1,4.113.849,8.1,8.1,0,0,1,5.55-7.638c4.491-1.462,8.4,2.916,9.792,5.288a2.485,2.485,0,0,1,3.2-1.24" transform="translate(-24.148 -10.343)"/><path class="a" d="M97.079,230.048c.358.941-3.671,3.364-6.376,4.752,2.824,4.487,6.817,8.3,6.557,9.187-.413,1.406-5.741,5.585-9.474,7.812L81.008,239.72c-.9.7-4.307,2.762-5.294,3.568-1.233,1.008-1.685-17.057.132-19.365S96.632,228.871,97.079,230.048Z" transform="translate(-15.421 -46.471)"/><path class="g" d="M75.434,224.17c-.147.393-.285.81-.414,1.245-.663,3.545-.318,12.772-.138,18.211l5.9-3.762,6.9,12.074,5.181-3.607,4.217-4.073a6.213,6.213,0,0,1-.9,2.618c-.589,1.031-8.663,6.674-8.9,6.746-.389-.268-4.721-8.107-6.682-12.019-1.785,1.047-5.632,4.129-5.97,3.544-1.374-1.178-1.642-12.844.393-19.734A3.368,3.368,0,0,1,75.434,224.17Z" transform="translate(-15.195 -46.616)"/><path class="g" d="M101.057,233.95a4.178,4.178,0,0,0,.435-1.749,30.2,30.2,0,0,1-3.114,2.486c-.491.322-2.53,1.339-3.488,1.808l.739,1.168C97.263,236.768,100.754,234.567,101.057,233.95Z" transform="translate(-19.644 -48.29)"/><path class="a" d="M32.244,152.08c2.018,1.032,22.029,28.354,23.3,30.288.049,2.623-18.807,12.242-20.646,11.064S11.93,164.653,11.888,163.5,30.226,151.048,32.244,152.08Z" transform="translate(-2.343 -31.576)"/><path class="h" d="M37.625,154.5l1.039,1.781" transform="translate(-7.707 -32.094)"/><path class="h" d="M35.983,154.9l-.548,1.988" transform="translate(-7.251 -32.178)"/><path class="b" d="M54.862,179.683a2.913,2.913,0,0,0,.808-3.76c-.94-2.178-13.909-18.124-13.81-19.832s2.841-3.258,1.923-5.4c-.872-2.034-4.166-6.619-6.2-6.3-2.564.4-4.547,1.6-6.009.344-1.06-.913-12.68,8.474-14.649,10.065s-5.78,4.746-5.015,6.791" transform="translate(-2.326 -29.983)"/><path class="a" d="M32.435,150.2c-2.84-1.61-14.53,6.368-20.019,10.558-.924,2.152-.035,1.878,2.56-.219s14.68-9.2,17.369-8.712c2.151.392,15.878,19.615,22.473,29.178l.8-1.02C49.075,170.731,35.275,151.813,32.435,150.2Z" transform="translate(-2.379 -31.155)"/><path class="b" d="M24.054,144.171l1.385-5.244" transform="translate(-4.879 -28.848)"/><path class="a" d="M87.81,123.25c-1.385,2.177-3.206,7.322,14.842,15.238,22.56,9.895,23.945,40.172-37.4,23.945" transform="translate(-13.466 -25.58)"/><path class="a" d="M86.607,132.94a3.087,3.087,0,1,0,4.273.608A3.052,3.052,0,0,0,86.607,132.94Z" transform="translate(-17.675 -27.472)"/><path class="b" d="M51.287,251.983a3.088,3.088,0,1,0,4.273.608A3.052,3.052,0,0,0,51.287,251.983Z" transform="translate(-10.313 -52.285)"/><path class="b" d="M12.8,187C7.259,191.354-.973,195.074.927,208.372,3.3,224.995,21.507,234.1,54.753,231.723" transform="translate(0 -38.868)"/><path class="a" d="M110,38.9c8.971-18.47,38.945-50.977,87.072-33.246" transform="translate(-22.793 0)"/><path class="b" d="M104.75,239.708c3.166-.461,10.488-1.9,14.446-3.958" transform="translate(-21.699 -49.03)"/><path class="e" d="M106.588,246.727c2.125,1.317,6.78,3.522,8.388,1.8S110.054,246.612,106.588,246.727Z" transform="translate(-22.082 -51.312)"/><path class="e" d="M35.854,70.632c.188-2.494,0-7.64-2.269-8.274S34.153,67.61,35.854,70.632Z" transform="translate(-6.689 -12.878)"/><path class="h" d="M64.448,191c-.709.363-2.216,1.128-2.573,1.286" transform="translate(-12.762 -39.702)"/><path class="h" d="M63.98,189.782c-.8-.048-1.468-.081-1.855-.126" transform="translate(-12.814 -39.422)"/></g></svg>