<svg xmlns="http://www.w3.org/2000/svg" width="104.777" height="102.256" viewBox="0 0 104.777 102.256"><path d="M12,64.423a52.386,52.386,0,0,0,35.821,49.736c2.619.459,3.6-1.113,3.6-2.488,0-1.246-.065-5.374-.065-9.764-13.163,2.423-16.568-3.213-17.616-6.161-.589-1.507-3.143-6.16-5.37-7.4-1.834-.983-4.453-3.407-.065-3.473,4.126-.065,7.072,3.8,8.055,5.373,4.715,7.929,12.246,5.7,15.258,4.325a11.029,11.029,0,0,1,3.34-7.012C43.3,86.243,31.122,81.722,31.122,61.671a20.408,20.408,0,0,1,5.37-14.089c-.524-1.31-2.357-6.684.524-13.893,0,0,4.388-1.375,14.407,5.374a49.365,49.365,0,0,1,26.194,0c10.019-6.815,14.407-5.373,14.407-5.373,2.881,7.207,1.048,12.58.524,13.891a20.289,20.289,0,0,1,5.37,14.088c0,20.117-12.246,24.572-23.9,25.884,1.9,1.638,3.536,4.783,3.536,9.7,0,7.012-.065,12.647-.065,14.417,0,1.375.982,3.012,3.6,2.488A52.435,52.435,0,1,0,12,64.423Z" transform="translate(-12 -12)"/></svg>