<svg xmlns="http://www.w3.org/2000/svg" width="19.89" height="20.885" viewBox="0 0 19.89 20.885"><defs><style>.a{fill:none;stroke:#d0c5c5;stroke-linecap:round;stroke-linejoin:round;stroke-width:3px;}</style></defs><path class="a" d="M8.948,16.778C4.7,18.053,4.7,14.654,3,14.229m11.9,5.1V16.039a2.864,2.864,0,0,0-.8-2.218c2.668-.3,5.473-1.309,5.473-5.948A4.622,4.622,0,0,0,18.3,4.687a4.308,4.308,0,0,0-.077-3.2s-1-.3-3.323,1.258a11.37,11.37,0,0,0-5.948,0C6.629,1.185,5.626,1.483,5.626,1.483a4.308,4.308,0,0,0-.076,3.2A4.623,4.623,0,0,0,4.275,7.9c0,4.606,2.8,5.617,5.473,5.948a2.864,2.864,0,0,0-.8,2.192v3.289" transform="translate(-1.181 0.057)"/></svg>