<svg xmlns="http://www.w3.org/2000/svg" width="48.693" height="48.693" viewBox="0 0 48.693 48.693"><defs><style>.a{fill:#4d4d4d;}</style></defs><path class="a" d="M26.6,2.25C13.152,2.25,2.25,13.434,2.25,27.216A24.918,24.918,0,0,0,18.9,50.9a1.908,1.908,0,0,0,.413.043,1.178,1.178,0,0,0,1.25-1.239c0-.6-.022-2.163-.033-4.25a11.13,11.13,0,0,1-2.456.293c-4.685,0-5.75-3.641-5.75-3.641-1.109-2.88-2.706-3.652-2.706-3.652-2.119-1.489-.011-1.533.152-1.533h.011a5.234,5.234,0,0,1,3.728,2.587,4.78,4.78,0,0,0,4.3,2.728,6.842,6.842,0,0,0,2.782-.652,5.393,5.393,0,0,1,1.543-3.337c-5.4-.63-11.086-2.772-11.086-12.336a9.772,9.772,0,0,1,2.5-6.7,9.19,9.19,0,0,1,.239-6.608,2.026,2.026,0,0,1,.543-.054c.88,0,2.869.337,6.152,2.619a22.631,22.631,0,0,1,12.2,0c3.282-2.283,5.271-2.619,6.152-2.619a2.026,2.026,0,0,1,.543.054,9.19,9.19,0,0,1,.239,6.608,9.812,9.812,0,0,1,2.5,6.7c0,9.587-5.7,11.7-11.119,12.315a6.054,6.054,0,0,1,1.652,4.619c0,3.337-.033,6.032-.033,6.848a1.172,1.172,0,0,0,1.239,1.25,2.1,2.1,0,0,0,.435-.043A24.914,24.914,0,0,0,50.943,27.216C50.943,13.434,40.042,2.25,26.6,2.25Z" transform="translate(-2.25 -2.25)"/></svg>