<svg xmlns="http://www.w3.org/2000/svg" width="45.684" height="45.684" viewBox="0 0 45.684 45.684"><defs><style>.a{fill:none;stroke:#7a3ac4;stroke-linecap:round;stroke-linejoin:round;stroke-width:3px;}</style></defs><g transform="translate(-1.5 -1.5)"><path class="a" d="M13.671,3H35.013A10.671,10.671,0,0,1,45.684,13.671V35.013A10.671,10.671,0,0,1,35.013,45.684H13.671A10.671,10.671,0,0,1,3,35.013V13.671A10.671,10.671,0,0,1,13.671,3Z" transform="translate(0 0)"/><path class="a" d="M29.046,19.22a8.537,8.537,0,1,1-7.192-7.192,8.537,8.537,0,0,1,7.192,7.192Z" transform="translate(3.832 3.778)"/><path class="a" d="M26.25,9.75h0" transform="translate(9.83 2.854)"/></g></svg>