<svg xmlns="http://www.w3.org/2000/svg" width="61.693" height="61.693" viewBox="0 0 61.693 61.693"><defs><style>.a{fill:#b3b9c5;}</style></defs><g transform="translate(-1.124 -1.124)"><path class="a" d="M15.623,15.736H24.3v8.379H15.623Z" transform="translate(12.003 12.096)"/><g transform="translate(1.124 1.124)"><path class="a" d="M15.623,15.736H24.3v8.379H15.623Z" transform="translate(10.879 10.972)"/><path class="a" d="M60.232,23.488C53.87,2.283,44.694-2.653,23.488,3.709S-2.653,19.247,3.709,40.453,19.247,66.594,40.453,60.232,66.594,44.694,60.232,23.488ZM49.526,37.253l-4,1.337L46.9,42.728a3.218,3.218,0,0,1-2.018,4.048,2.894,2.894,0,0,1-1.08.154,3.277,3.277,0,0,1-2.956-2.172L39.476,40.62l-8.238,2.763,1.375,4.138A3.218,3.218,0,0,1,30.6,51.57a2.894,2.894,0,0,1-1.08.154,3.277,3.277,0,0,1-2.956-2.172l-1.4-4.164-3.984,1.324a2.894,2.894,0,0,1-1.08.154,3.277,3.277,0,0,1-2.956-2.172,3.218,3.218,0,0,1,2.018-4.048l4-1.337-2.66-7.943-4,1.337a2.894,2.894,0,0,1-1.08.154,3.277,3.277,0,0,1-2.956-2.172,3.218,3.218,0,0,1,2.018-4.048l4-1.337-1.4-4.125a3.2,3.2,0,0,1,6.066-2.031l1.375,4.138,8.238-2.763-1.375-4.138a3.2,3.2,0,1,1,6.066-2.031l1.375,4.138,4-1.337a3.2,3.2,0,1,1,2.031,6.066l-4,1.337,2.66,7.943,4-1.337a3.209,3.209,0,1,1,2.018,6.092Z" transform="translate(-1.124 -1.124)"/></g></g></svg>