<svg xmlns="http://www.w3.org/2000/svg" width="39.361" height="27.25" viewBox="0 0 39.361 27.25"><defs><style>.a{fill:#d0c5c5;}</style></defs><g transform="translate(-3.375 -7.875)"><path class="a" d="M42.414,10.372,32.234,20.742a.183.183,0,0,0,0,.265L39.358,28.6a1.228,1.228,0,0,1,0,1.741,1.234,1.234,0,0,1-1.741,0l-7.1-7.56a.194.194,0,0,0-.274,0l-1.732,1.76a7.618,7.618,0,0,1-5.431,2.29,7.771,7.771,0,0,1-5.545-2.356l-1.665-1.694a.194.194,0,0,0-.274,0l-7.1,7.56a1.234,1.234,0,0,1-1.741,0,1.228,1.228,0,0,1,0-1.741l7.125-7.588a.2.2,0,0,0,0-.265L3.7,10.372a.186.186,0,0,0-.322.132v20.75A3.037,3.037,0,0,0,6.4,34.282H39.708a3.037,3.037,0,0,0,3.028-3.028V10.5A.189.189,0,0,0,42.414,10.372Z" transform="translate(0 0.843)"/><path class="a" d="M22.761,25.2a5.144,5.144,0,0,0,3.7-1.552L41.307,8.537a2.974,2.974,0,0,0-1.873-.662H6.1a2.954,2.954,0,0,0-1.873.662L19.071,23.648A5.145,5.145,0,0,0,22.761,25.2Z" transform="translate(0.294)"/></g></svg>