<svg xmlns="http://www.w3.org/2000/svg" width="31.998" height="28" viewBox="0 0 31.998 28"><defs><style>.a{fill:#d0c5c5;}</style></defs><path class="a" d="M26.136,11.325q-.506-.169-1.012-.319c.056-.231.106-.462.156-.694.769-3.725.262-6.718-1.444-7.706-1.644-.944-4.325.037-7.037,2.4-.269.231-.531.475-.781.719-.169-.162-.344-.325-.519-.481C12.656,2.719,9.806,1.656,8.1,2.65,6.462,3.6,5.975,6.419,6.662,9.943c.069.35.144.694.231,1.044-.4.112-.794.237-1.162.369C2.394,12.512,0,14.337,0,16.224c0,1.95,2.55,3.906,6.018,5.093.281.094.562.187.85.269-.094.375-.175.744-.25,1.125-.656,3.469-.144,6.218,1.494,7.162,1.687.975,4.525-.025,7.287-2.444.219-.194.437-.394.656-.606.275.269.562.525.85.775,2.675,2.3,5.318,3.231,6.95,2.287,1.687-.975,2.237-3.931,1.525-7.531q-.084-.412-.187-.844c.2-.056.394-.119.587-.181C29.386,20.137,32,18.206,32,16.224,32,14.331,29.536,12.493,26.136,11.325ZM17.68,6.019c2.325-2.025,4.494-2.819,5.481-2.25,1.056.606,1.462,3.056.8,6.275-.044.212-.087.419-.144.625a31.994,31.994,0,0,0-4.206-.662,31.576,31.576,0,0,0-2.662-3.319c.244-.231.481-.45.731-.669ZM10.449,19.468c.319.544.644,1.087.987,1.619a28.3,28.3,0,0,1-2.9-.469,29.194,29.194,0,0,1,1.019-2.781C9.843,18.387,10.137,18.931,10.449,19.468ZM8.556,11.95c.9-.2,1.856-.362,2.85-.487-.331.519-.656,1.05-.962,1.587s-.606,1.075-.887,1.625c-.394-.931-.725-1.844-1-2.725Zm1.712,4.306c.412-.862.862-1.706,1.337-2.537s.987-1.637,1.525-2.431c.937-.069,1.894-.106,2.869-.106s1.937.037,2.869.106q.8,1.181,1.519,2.419t1.356,2.525q-.628,1.294-1.35,2.55c-.475.831-.981,1.637-1.512,2.437-.931.069-1.9.1-2.881.1s-1.931-.031-2.85-.087q-.816-1.191-1.537-2.437c-.481-.831-.925-1.675-1.344-2.537Zm11.287,3.2c.319-.55.619-1.106.912-1.669a29.012,29.012,0,0,1,1.056,2.769,27.451,27.451,0,0,1-2.937.5C20.924,20.53,21.243,19.993,21.555,19.455Zm.9-4.781c-.294-.55-.594-1.1-.906-1.637s-.625-1.056-.956-1.575a28.76,28.76,0,0,1,2.869.5,27.659,27.659,0,0,1-1.006,2.712ZM16.012,7.644a27.444,27.444,0,0,1,1.85,2.237c-1.237-.056-2.481-.056-3.719,0C14.756,9.075,15.387,8.325,16.012,7.644ZM8.762,3.813c1.05-.612,3.381.262,5.837,2.437.156.137.312.287.475.437a31.752,31.752,0,0,0-2.681,3.319,32.944,32.944,0,0,0-4.2.65c-.081-.319-.15-.644-.219-.969-.587-3.025-.2-5.306.787-5.875ZM7.231,20.287c-.262-.075-.519-.156-.775-.244a12.747,12.747,0,0,1-3.937-1.95,2.8,2.8,0,0,1-1.175-1.869c0-1.144,1.975-2.606,4.825-3.6.356-.125.719-.237,1.081-.344a33.232,33.232,0,0,0,1.531,3.975,34.162,34.162,0,0,0-1.55,4.031Zm7.287,6.125a11.439,11.439,0,0,1-3.525,2.206,2.766,2.766,0,0,1-2.206.081c-.994-.575-1.406-2.781-.844-5.75.069-.35.144-.7.231-1.044a31.266,31.266,0,0,0,4.244.612,32.981,32.981,0,0,0,2.7,3.337C14.918,26.049,14.718,26.236,14.518,26.411Zm1.531-1.519c-.637-.687-1.275-1.45-1.894-2.269.6.025,1.219.037,1.844.037.644,0,1.275-.012,1.9-.044a26.952,26.952,0,0,1-1.85,2.275Zm8.168,1.875a2.778,2.778,0,0,1-1.031,1.956c-.994.575-3.112-.175-5.4-2.137-.262-.225-.525-.469-.794-.719a30.916,30.916,0,0,0,2.637-3.35,30.809,30.809,0,0,0,4.262-.656c.062.256.119.512.169.762A11.393,11.393,0,0,1,24.218,26.768Zm1.137-6.718c-.175.056-.35.112-.531.162a31.748,31.748,0,0,0-1.594-3.987,31.589,31.589,0,0,0,1.531-3.931c.325.094.637.194.937.294,2.912,1,4.956,2.487,4.956,3.625,0,1.225-2.181,2.806-5.3,3.837ZM16,19.112a2.862,2.862,0,1,0-2.862-2.862A2.862,2.862,0,0,0,16,19.112Z" transform="translate(0 -2.251)"/></svg>